<svg width="135" height="135" viewBox="0 0 135 135" fill="none" xmlns="http://www.w3.org/2000/svg">
<rect width="135" height="135" fill="black"/>
<path d="M28.4072 24V103.398H116V24H28.4072ZM112.577 99.9826H31.8372V27.4228H112.577V99.9826ZM22.4371 109.397V29.9701L19 33.4144V112.82H106.578L110.008 109.397H22.4371Z" fill="white"/>
<path fill-rule="evenodd" clip-rule="evenodd" d="M71.5572 94.9369C74.9199 90.2537 78.7303 89.0452 81.7301 86.7403C88.0231 81.9026 92.4899 77.8836 94.5709 70.1311L98.0107 72.4592L96.8718 58.1124L88.1775 67.0618L90.992 69.3668C88.7952 73.6291 79.8924 85.5434 75.6496 77.2931L74.3177 53.6494H82.2978V48.7887H74.0435L73.7579 43.6886C76.0395 42.9706 77.6919 40.8393 77.6919 38.3221C77.6919 35.2142 75.1746 32.6968 72.0668 32.6968C68.9589 32.6968 66.4418 35.2141 66.4418 38.3221C66.4418 40.4648 67.6385 42.3257 69.3991 43.2756L69.1251 48.7888H61.585V53.6495H68.8856L67.7235 77.0381C62.1216 85.0494 56.3035 73.6175 52.2536 68.9805L54.9367 65.529L46.4974 58.8807L45.6287 73.2005L48.4161 70.2587C51.2111 77.6328 56.8055 83.1654 61.8436 87.0184C64.6967 88.9719 68.3182 90.5085 71.5572 94.9369Z" stroke="white" stroke-width="2.15269" stroke-miterlimit="10" stroke-linecap="round" stroke-linejoin="round"/>
<path d="M71.6846 86.4971V93.2729" stroke="white" stroke-width="2.15269" stroke-miterlimit="10" stroke-linecap="round" stroke-linejoin="round"/>
<path d="M71.6846 81.5149V81.4742" stroke="white" stroke-width="2.15269" stroke-miterlimit="10" stroke-linecap="round" stroke-linejoin="round"/>
<path d="M71.9433 38.0423V38.0015" stroke="white" stroke-width="2.15269" stroke-miterlimit="10" stroke-linecap="round" stroke-linejoin="round"/>
</svg>
